Coordinates
version=1
nRows=8
nColumns=63
inDegrees=yes

Units are S.I. units (second, meters, Newtons, ...)
If the header above contains a line with 'inDegrees', this indicates whether rotational values are in degrees (yes) or radians (no).

endheader
time	pelvis_tilt	pelvis_list	pelvis_rotation	pelvis_tx	pelvis_ty	pelvis_tz	hip_flexion_r	hip_adduction_r	hip_rotation_r	knee_angle_r	knee_angle_r_beta	ankle_angle_r	subtalar_angle_r	mtp_angle_r	hip_flexion_l	hip_adduction_l	hip_rotation_l	knee_angle_l	knee_angle_l_beta	ankle_angle_l	subtalar_angle_l	mtp_angle_l	L5_S1_Flex_Ext	L5_S1_Lat_Bending	L5_S1_axial_rotation	L4_L5_Flex_Ext	L4_L5_Lat_Bending	L4_L5_axial_rotation	L3_L4_Flex_Ext	L3_L4_Lat_Bending	L3_L4_axial_rotation	L2_L3_Flex_Ext	L2_L3_Lat_Bending	L2_L3_axial_rotation	L1_L2_Flex_Ext	L1_L2_Lat_Bending	L1_L2_axial_rotation	L1_T12_Flex_Ext	L1_T12_Lat_Bending	L1_T12_axial_rotation	Abs_r3	Abs_r2	Abs_r1	Abs_t1	Abs_t2	neck_flexion	neck_bending	neck_rotation	arm_flex_r	arm_add_r	arm_rot_r	elbow_flex_r	pro_sup_r	wrist_flex_r	wrist_dev_r	arm_flex_l	arm_add_l	arm_rot_l	elbow_flex_l	pro_sup_l	wrist_flex_l	wrist_dev_l
      1.26530612	      2.87981162	     -2.49359530	     96.37406615	      0.46250528	      0.74289819	      0.69738887	      1.13672145	     -1.21301468	     -1.09608501	      0.59005110	      0.01029833	     21.25253727	     -5.04905184	      0.00000000	      5.18553154	      0.22283067	      8.77225845	      4.77939106	      0.08341611	     26.75673379	      7.73163854	      0.00000000	      0.04125197	     -1.21738956	     -0.52440723	      0.07660904	     -1.61912812	     -0.55718269	      0.06777286	     -2.95996098	     -0.55718269	      0.04714688	     -2.95996098	     -0.45885633	      0.03830658	     -2.48250080	     -0.42608088	      0.02357138	     -1.88573643	     -0.39330542	      0.29465870	    -13.77135421	     -2.91659571	      0.00000000	      0.00000000	     20.70347022	      5.41530527	    -26.60344970	     11.88430316	    -27.31491252	     35.80912877	    149.75397787	     42.34512379	     33.67152586	     18.97877242	     -7.02654149	    -30.54627443	     50.67528572	     11.14995538	      6.54706236	     -0.92358596	     -9.47858017
      1.28571429	      2.81181287	     -2.28376713	     96.56697063	      0.46330171	      0.74288809	      0.69478304	      0.85095750	     -1.17243021	     -1.23439857	      0.73768330	      0.01287500	     22.03314656	     -5.26376186	      0.00000000	      5.00998010	      0.23126035	      9.14628376	      5.20099637	      0.09077451	     27.94310126	      7.91013481	      0.00000000	      0.03397369	     -1.24573062	     -0.46739652	      0.06309253	     -1.65682172	     -0.49660880	      0.05581537	     -3.02886943	     -0.49660880	      0.03882853	     -3.02886943	     -0.40897196	      0.03154796	     -2.54029388	     -0.37975967	      0.01941256	     -1.92963673	     -0.35054739	      0.24267064	    -14.09195390	     -2.59951923	      0.00000000	      0.00000000	     20.52866004	      5.24182224	    -26.19049229	     10.42397387	    -27.08988024	     35.41534489	    149.73423357	     41.52665668	     33.65346987	     18.66517160	     -5.89653282	    -31.51631914	     50.52324467	     11.44311264	      6.29302167	     -1.29161258	     -9.88215021
      1.30612245	      2.72947458	     -2.17561525	     97.01576553	      0.46368226	      0.74279424	      0.69256559	      0.65641480	     -1.17336771	     -1.74607738	      0.88663578	      0.01547471	     22.69683256	     -5.34894683	      0.00000000	      5.18248828	      0.31828430	      9.33111591	      5.95603457	      0.10395241	     29.24276266	      8.61713750	      0.00000000	      0.04250861	     -1.27470666	     -0.47676404	      0.07894274	     -1.69535986	     -0.50656180	      0.06983739	     -3.09932178	     -0.50656180	      0.04858309	     -3.09932178	     -0.41716854	      0.03947349	     -2.59938183	     -0.38737079	      0.02428942	     -1.97452062	     -0.35757303	      0.30363474	    -14.41973670	     -2.65161858	      0.00000000	      0.00000000	     20.16606949	      5.21842652	    -25.89196492	      8.89478205	    -26.43408903	     34.64989808	    149.71140946	     39.13052081	     34.13560575	     20.70462580	     -4.89226091	    -32.43355725	     49.85050246	     12.24844607	      5.02053538	     -2.79402216	    -10.46703291
      1.32653061	      2.67675587	     -1.91873416	     97.18094857	      0.46427135	      0.74284385	      0.69042177	      0.35697739	     -1.12477263	     -2.07171457	      1.07247293	      0.01871818	     23.28466179	     -5.33122414	      0.00000000	      5.25865011	      0.32878840	      8.61562354	      6.78499109	      0.11842043	     30.47419654	     10.03072154	      0.00000000	      0.03592384	     -1.28495009	     -0.47221556	      0.06671416	     -1.70898362	     -0.50172903	      0.05901927	     -3.12422765	     -0.50172903	      0.04105735	     -3.12422765	     -0.41318861	      0.03335888	     -2.62027023	     -0.38367514	      0.02052688	     -1.99038769	     -0.35416167	      0.25660038	    -14.53561243	     -2.62632127	      0.00000000	      0.00000000	     19.85398465	      5.13797449	    -25.01751395	      7.76356063	    -25.79765638	     34.22004216	    149.69038431	     35.95025612	     33.91862584	     23.42806708	     -4.07672060	    -32.94278044	     45.24486526	     13.08972200	      4.90643820	     -2.83258974	    -10.34150088
      1.34693878	      2.66322690	     -1.77879665	     97.29156162	      0.46456595	      0.74284259	      0.68825945	      0.17403619	     -1.06130008	     -2.24629595	      1.22445981	      0.02137086	     23.48291621	     -5.55086258	      0.00000000	      5.49551576	      0.40857504	      8.78722260	      7.68863937	      0.13419207	     31.03275555	      9.92846375	      0.00000000	      0.04912113	     -1.28093064	     -0.43111736	      0.09122285	     -1.70363776	     -0.45806220	      0.08070111	     -3.11445477	     -0.45806220	      0.05614054	     -3.11445477	     -0.37722769	      0.04561388	     -2.61207377	     -0.35028286	      0.02806781	     -1.98416157	     -0.32333802	      0.35086732	    -14.49014364	     -2.39774544	      0.00000000	      0.00000000	     19.48816070	      4.77552795	    -24.32505845	      6.61593540	    -25.37797520	     33.88927904	    149.66348782	     35.98163712	     33.97800771	     23.54033182	     -2.44831563	    -33.39339353	     44.45487034	     13.34925490	      4.68015197	     -3.00282291	    -10.23213429
      1.36734694	      2.83698417	     -1.81424952	     97.50107135	      0.46471125	      0.74265983	      0.68619263	      0.16193486	     -0.78114460	     -0.71634242	      1.30509826	      0.02277826	     22.55726035	     -8.63432837	      0.00000000	      6.00833360	      0.40114751	      9.63738756	      8.69811191	      0.15181069	     31.11076707	      8.76902940	      0.00000000	      0.09976716	     -1.25278121	     -0.47298229	      0.18527760	     -1.66619901	     -0.50254369	      0.16390747	     -3.04601223	     -0.50254369	      0.11402389	     -3.04601223	     -0.41385951	      0.09264379	     -2.55467144	     -0.38429811	      0.05700696	     -1.94055809	     -0.35473672	      0.71262688	    -14.17171159	     -2.63058562	      0.00000000	      0.00000000	     19.01778772	      4.56490010	    -23.16296963	      5.88546083	    -24.84196872	     33.67177008	    149.63042663	     34.78175950	     33.85421276	     25.34796544	     -2.25474382	    -33.05743277	     31.08154322	     15.62487987	      6.22640129	     -3.55258713	     -8.00260054
      1.38775510	      3.02577811	     -1.91838351	     97.47999434	      0.46496869	      0.74259061	      0.68467071	      0.22680516	     -0.53447037	     -0.85507866	      1.26988693	      0.02216371	     21.85591322	     -8.88270655	      0.00000000	      6.55113868	      0.33596235	      9.57954112	      9.53022304	      0.16633377	     31.21107888	      8.41330006	      0.00000000	      0.15693997	     -1.21419465	     -0.43662995	      0.29145321	     -1.61487889	     -0.46391932	      0.25783667	     -2.95219288	     -0.46391932	      0.17936669	     -2.95219288	     -0.38205121	      0.14573445	     -2.47598574	     -0.35476184	      0.08967550	     -1.88078752	     -0.32747246	      1.12100649	    -13.73521276	     -2.42840481	      0.00000000	      0.00000000	     18.81123170	      4.22219928	    -21.78909814	      5.20469499	    -24.57406253	     33.52036594	    149.60836944	     34.85257062	     33.55389958	     25.69147009	     -0.12445134	    -32.97381958	     30.09707519	     15.54031368	      5.66049367	     -3.60437387	     -6.38005786
      1.40816327	      3.16519380	     -2.06507156	     97.37960012	      0.46500215	      0.74253588	      0.68362863	      0.31870325	     -0.37249901	     -0.76743843	      1.14705383	      0.02001987	     20.94373033	     -9.28102583	      0.00000000	      7.02939043	      0.33402933	      9.51961476	     10.06497391	      0.17566693	     31.49410815	      7.96239392	      0.00000000	      0.21702039	     -1.17291445	     -0.43091755	      0.40302857	     -1.55997622	     -0.45784990	      0.35654280	     -2.85182420	     -0.45784990	      0.24803261	     -2.85182420	     -0.37705286	      0.20152514	     -2.39180715	     -0.35012051	      0.12400545	     -1.81684449	     -0.32318816	      1.55015495	    -13.26824287	     -2.39663413	      0.00000000	      0.00000000	     19.10840942	      4.30728893	    -19.66575599	      4.97736737	    -24.35060986	     33.66019087	    149.58021391	     35.04519140	     33.28161122	     26.05827378	      1.98422557	    -32.74664396	     29.81684329	     15.13914943	      5.82714289	     -3.52724561	     -4.42278848
